<svg width="20" height="20" viewBox="0 0 20 20" fill="none" xmlns="http://www.w3.org/2000/svg">
<path d="M3.18689 11.8069C3.18689 11.8069 3.55845 13.2376 5.88533 12.8716L6.28064 11.9141L5.61095 11.1866L3.75939 10.5757L3.18689 11.8069Z" fill="#34484C"/>
<path d="M10.6 9.12406C10.6 9.63063 10.3394 9.76469 9.68185 10.0422L4.06498 12.4141C3.94433 12.4141 3.82485 12.3904 3.71338 12.3443C3.60191 12.2981 3.50064 12.2305 3.41536 12.1451C3.33008 12.0598 3.26247 11.9585 3.21639 11.847C3.17032 11.7355 3.14669 11.616 3.14685 11.4953V3.6025C3.14685 3.09562 3.44498 2.9275 4.06498 2.68531L9.68216 0.3125C9.92569 0.3125 10.1593 0.409221 10.3315 0.581394C10.5037 0.753566 10.6005 0.987094 10.6006 1.23062V9.12437" fill="#AD7029"/>
<path d="M3.65656 12.3186C3.65656 12.3186 5.7628 12.9217 5.88593 12.8711C6.00843 12.8179 5.80655 11.9573 5.80655 11.9573L5.04562 11.1376L4.33624 11.1045L4.21156 11.2814L3.65656 12.3186Z" fill="#34484C"/>
<path d="M9.54938 0.861328L3.3175 3.47852L3.60969 5.15633L4.53688 5.24914L7.63344 4.7507L9.55813 3.74227L10.9744 1.80164C10.6656 1.24695 10.2103 0.903516 9.54938 0.861328Z" fill="#F4F5F5"/>
<path d="M4.96783 4.05931C4.96783 3.91181 4.99533 3.79399 5.04533 3.69462C4.4072 3.63462 3.8047 3.45056 3.36595 3.05493C3.2197 3.18899 3.14783 3.35493 3.14783 3.60368V11.4968C3.14791 11.7403 3.24467 11.9738 3.41683 12.1459C3.589 12.3181 3.82248 12.4148 4.06595 12.4149L4.9722 12.0324C4.97033 12.0049 4.96751 11.9799 4.96751 11.9524L4.96783 4.05931Z" fill="#34484C"/>
<path d="M12.5831 9.90315C12.5831 10.411 12.3222 10.5438 11.6644 10.8219L5.8853 12.871C5.64169 12.871 5.40805 12.7742 5.23576 12.602C5.06347 12.4298 4.96664 12.1961 4.96655 11.9525V4.0594C4.96655 3.55315 5.26499 3.3844 5.8853 3.14065L11.6644 1.09253C11.9078 1.09236 12.1414 1.18889 12.3137 1.36089C12.4859 1.53289 12.5829 1.76627 12.5831 2.00972V9.90315Z" fill="#F79420"/>
<path d="M10.1897 3.50088C10.1957 3.51604 10.1987 3.53226 10.1984 3.54858C10.1981 3.5649 10.1945 3.58099 10.1879 3.59592C10.1813 3.61085 10.1718 3.62431 10.1599 3.63551C10.148 3.64672 10.1341 3.65545 10.1188 3.66119L7.04502 4.84681C7.01426 4.85869 6.98006 4.85793 6.94986 4.8447C6.91965 4.83147 6.8959 4.80685 6.88377 4.77619C6.87199 4.74547 6.8728 4.71134 6.88602 4.68121C6.89925 4.65108 6.92381 4.62738 6.9544 4.61525L10.0294 3.42963C10.0601 3.41808 10.0942 3.41907 10.1242 3.4324C10.1541 3.44574 10.1777 3.47033 10.1897 3.50088ZM10.1897 4.0665C10.1956 4.08168 10.1985 4.09788 10.1982 4.11418C10.1978 4.13047 10.1942 4.14653 10.1876 4.16144C10.181 4.17634 10.1716 4.18979 10.1597 4.20101C10.1479 4.21223 10.134 4.221 10.1188 4.22681L7.04502 5.41181C7.02988 5.41776 7.01371 5.42067 6.99744 5.42038C6.98118 5.42008 6.96513 5.41658 6.95021 5.41008C6.9353 5.40358 6.92181 5.39421 6.91051 5.38249C6.89922 5.37078 6.89035 5.35696 6.8844 5.34181C6.87845 5.32667 6.87554 5.3105 6.87583 5.29424C6.87613 5.27797 6.87963 5.26192 6.88613 5.247C6.89263 5.23209 6.902 5.2186 6.91372 5.20731C6.92543 5.19601 6.93925 5.18714 6.9544 5.18119L10.0294 3.99494C10.0602 3.98325 10.0944 3.98425 10.1244 3.99773C10.1545 4.0112 10.1779 4.03605 10.1897 4.06681M9.14471 5.05306C9.16971 5.11681 9.1544 5.18338 9.11065 5.19994L7.01127 6.00931C6.96752 6.02619 6.91252 5.98744 6.8869 5.92369C6.86283 5.85994 6.87908 5.79338 6.92221 5.77681L9.02158 4.96806C9.06408 4.95181 9.12065 4.98869 9.14471 5.05306Z" fill="#905A24"/>
<path d="M1.29437 16.3079C1.29437 16.3079 1.695 17.8519 4.205 17.4575L4.63218 16.4238L3.91031 15.6391L1.91062 14.9797L1.29437 16.3079Z" fill="#34484C"/>
<path d="M9.29314 13.4182C9.29314 13.9648 9.01189 14.1085 8.30189 14.4088L2.24064 16.9676C2.11044 16.9677 1.98151 16.9421 1.86121 16.8923C1.74091 16.8425 1.6316 16.7695 1.53954 16.6774C1.44747 16.5854 1.37446 16.4761 1.32468 16.3558C1.27489 16.2355 1.24931 16.1065 1.24939 15.9763V7.46103C1.24939 6.91196 1.57064 6.7304 2.24064 6.46946L8.30189 3.9104C8.43201 3.91032 8.56087 3.93587 8.68111 3.9856C8.80135 4.03533 8.91061 4.10825 9.00266 4.20022C9.09471 4.29218 9.16774 4.40138 9.21758 4.52157C9.26742 4.64176 9.2931 4.7706 9.29314 4.90071V13.4182Z" fill="#1EA0CD"/>
<path d="M1.80093 16.8618C1.80093 16.8618 4.07343 17.514 4.20436 17.4584C4.33749 17.4015 4.11999 16.4727 4.11999 16.4727L3.29811 15.5871L2.53374 15.5527L2.39936 15.743L1.79999 16.8618" fill="#34484C"/>
<path d="M8.16062 4.49878L1.4375 7.32503L1.75219 9.1344L2.75219 9.2344L6.09344 8.69597L8.17031 7.60815L9.69875 5.51409C9.365 4.91534 8.87375 4.54409 8.16125 4.49878" fill="#F4F5F5"/>
<path d="M3.21721 7.95087C3.21721 7.79306 3.24408 7.66524 3.29877 7.55774C2.61127 7.49399 1.96189 7.29524 1.48627 6.86743C1.33002 7.01243 1.25189 7.19243 1.25189 7.46118V15.9762C1.25173 16.1063 1.27724 16.2353 1.32695 16.3556C1.37667 16.4759 1.44962 16.5852 1.54164 16.6772C1.63365 16.7693 1.74291 16.8423 1.86318 16.8921C1.98345 16.9419 2.11235 16.9675 2.24252 16.9674L3.22064 16.5549C3.21812 16.5261 3.21676 16.4973 3.21658 16.4684V7.95087H3.21721Z" fill="#34484C"/>
<path d="M11.4328 14.2552C11.4328 14.8024 11.1522 14.9459 10.4415 15.2459L4.20529 17.4577C3.9425 17.4575 3.69055 17.353 3.50476 17.1671C3.31897 16.9813 3.21452 16.7293 3.21436 16.4665V7.9493C3.21436 7.40242 3.53686 7.22055 4.20529 6.95867L10.4415 4.74805C10.5717 4.74801 10.7006 4.77362 10.8209 4.82342C10.9412 4.87322 11.0505 4.94623 11.1426 5.03829C11.2346 5.13034 11.3076 5.23963 11.3574 5.35991C11.4072 5.4802 11.4328 5.60911 11.4328 5.7393V14.2552Z" fill="#57C6E9"/>
<path d="M8.85061 7.34775C8.85696 7.36419 8.86001 7.38171 8.85958 7.39933C8.85916 7.41694 8.85526 7.4343 8.84812 7.45041C8.84098 7.46651 8.83074 7.48106 8.81797 7.4932C8.80521 7.50535 8.79018 7.51486 8.77373 7.52119L5.45811 8.79994C5.42494 8.81278 5.38804 8.81205 5.35541 8.7979C5.32277 8.78374 5.29702 8.75731 5.28373 8.72431C5.27098 8.69086 5.27197 8.65373 5.28649 8.621C5.30101 8.58828 5.32787 8.56262 5.36123 8.54963L8.67686 7.2715C8.69327 7.26504 8.71079 7.26189 8.72842 7.26223C8.74606 7.26257 8.76345 7.26639 8.7796 7.27348C8.79574 7.28057 8.81033 7.29078 8.82252 7.30353C8.83471 7.31627 8.84425 7.3313 8.85061 7.34775ZM8.85061 7.95963C8.86324 7.99274 8.86225 8.02952 8.84784 8.0619C8.83343 8.09429 8.80679 8.11965 8.77373 8.13244L5.45811 9.41088C5.44167 9.41736 5.42412 9.42053 5.40646 9.42022C5.3888 9.41991 5.37137 9.41612 5.35518 9.40906C5.33898 9.40201 5.32433 9.39183 5.31207 9.37912C5.29981 9.3664 5.29018 9.35138 5.28373 9.33494C5.27102 9.30166 5.27205 9.2647 5.28658 9.23218C5.30111 9.19966 5.32797 9.17423 5.36123 9.1615L8.67686 7.88275C8.69331 7.87631 8.71087 7.87319 8.72853 7.87357C8.74619 7.87395 8.7636 7.87783 8.77976 7.88498C8.79591 7.89212 8.81049 7.9024 8.82265 7.91521C8.83481 7.92803 8.84431 7.94312 8.85061 7.95963ZM7.72311 9.02306C7.74936 9.09244 7.73311 9.16306 7.68592 9.18056L5.4203 10.054C5.37342 10.0728 5.31436 10.0315 5.28717 9.96275C5.26061 9.89275 5.27655 9.82213 5.32373 9.80431L7.58905 8.93088C7.63686 8.91369 7.69655 8.95463 7.72311 9.02306Z" fill="#198BA9"/>
<path d="M6.83252 18.3773C6.83252 18.3773 7.26689 20.0445 9.97846 19.6179L10.4403 18.5017L9.66002 17.6545L7.50002 16.9417L6.83252 18.3773Z" fill="#34484C"/>
<path d="M15.4735 15.2517C15.4735 15.8423 15.1703 15.9982 14.4028 16.3213L7.85596 19.086C7.57215 19.086 7.29996 18.9733 7.09924 18.7726C6.89853 18.572 6.78573 18.2998 6.78564 18.016V8.81571C6.78564 8.22446 7.13283 8.02759 7.85596 7.7454L14.4028 4.98071C14.6867 4.9808 14.9589 5.09358 15.1597 5.29427C15.3604 5.49497 15.4733 5.76716 15.4735 6.05103V15.2517Z" fill="#78111F"/>
<path d="M7.38031 18.9748C7.38031 18.9748 9.83562 19.6782 9.97843 19.6176C10.1212 19.557 9.88687 18.5542 9.88687 18.5542L8.99937 17.5973L8.17281 17.5588L8.0275 17.7657L7.38062 18.9751" fill="#34484C"/>
<path d="M14.2491 5.61865L6.98438 8.67022L7.32562 10.6265L8.40688 10.7333L12.0137 10.1527L14.2575 8.97647L15.9091 6.71553C15.5472 6.06865 15.0175 5.6674 14.2472 5.61865" fill="#F4F5F5"/>
<path d="M8.91065 9.34665C8.91065 9.17634 8.94097 9.03884 8.99909 8.92165C8.25534 8.8529 7.55409 8.6379 7.04159 8.17603C6.87222 8.33259 6.78784 8.52696 6.78784 8.81665V18.0167C6.78788 18.1572 6.81562 18.2965 6.86946 18.4263C6.9233 18.5562 7.0022 18.6742 7.10164 18.7736C7.20109 18.873 7.31914 18.9518 7.44905 19.0056C7.57895 19.0594 7.71818 19.087 7.85878 19.087L8.91503 18.6407C8.91236 18.6099 8.9109 18.5791 8.91065 18.5482V9.34665Z" fill="#34484C"/>
<path d="M17.784 16.1605C17.784 16.7511 17.4809 16.9061 16.7144 17.2305L9.97717 19.6186C9.69353 19.6188 9.42143 19.5063 9.22072 19.3059C9.02 19.1055 8.90711 18.8335 8.90686 18.5499V9.34739C8.90686 8.75677 9.25405 8.56083 9.97717 8.27864L16.7147 5.88989C16.9983 5.88998 17.2702 6.00267 17.4707 6.2032C17.6713 6.40373 17.784 6.67568 17.784 6.95927V16.1605Z" fill="#BE202E"/>
<path d="M14.9962 8.69598C15.0032 8.71377 15.0066 8.73275 15.0062 8.75185C15.0058 8.77094 15.0016 8.78977 14.9939 8.80725C14.9862 8.82473 14.9751 8.84052 14.9613 8.85371C14.9475 8.8669 14.9312 8.87723 14.9134 8.88411L11.3303 10.2647C11.3127 10.2717 11.2938 10.2751 11.2749 10.2748C11.2559 10.2745 11.2373 10.2704 11.2199 10.2628C11.2025 10.2552 11.1868 10.2443 11.1737 10.2306C11.1606 10.217 11.1503 10.2008 11.1434 10.1832C11.1364 10.1655 11.133 10.1466 11.1334 10.1276C11.1338 10.1086 11.1379 10.0899 11.1456 10.0725C11.1532 10.0551 11.1643 10.0394 11.1781 10.0263C11.1919 10.0132 11.2081 10.003 11.2259 9.9963L14.8093 8.61411C14.845 8.60021 14.8847 8.60103 14.9197 8.61638C14.9548 8.63173 14.9823 8.66036 14.9962 8.69598ZM14.9962 9.3563C15.0031 9.37398 15.0064 9.39284 15.006 9.41182C15.0056 9.43079 15.0014 9.44948 14.9937 9.46683C14.986 9.48417 14.9749 9.49982 14.9611 9.51287C14.9474 9.52592 14.9311 9.53611 14.9134 9.54286L11.33 10.9244C11.2942 10.9382 11.2544 10.9372 11.2194 10.9217C11.1844 10.9061 11.1569 10.8773 11.1431 10.8416C11.1292 10.8057 11.1301 10.7658 11.1455 10.7305C11.161 10.6953 11.1898 10.6676 11.2256 10.6535L14.809 9.27348C14.8268 9.26645 14.8457 9.26301 14.8648 9.26337C14.8839 9.26374 14.9027 9.26789 14.9201 9.2756C14.9376 9.28331 14.9533 9.29441 14.9665 9.30827C14.9796 9.32212 14.9895 9.33845 14.9962 9.3563ZM13.779 10.5063C13.8078 10.5807 13.7903 10.6575 13.7381 10.6766L11.2915 11.6207C11.24 11.64 11.1756 11.5957 11.1472 11.521C11.1181 11.4469 11.1359 11.3694 11.1878 11.3497L13.6343 10.4069C13.6847 10.3872 13.749 10.4313 13.779 10.5063Z" fill="#78111F"/>
</svg>
