<svg width="20" height="20" viewBox="0 0 20 20" fill="none" xmlns="http://www.w3.org/2000/svg">
<path d="M10 0C10.918 0 11.8034 0.117188 12.6562 0.351562C13.5091 0.585938 14.3034 0.924479 15.0391 1.36719C15.7747 1.8099 16.4486 2.33073 17.0605 2.92969C17.6725 3.52865 18.1966 4.20247 18.6328 4.95117C19.069 5.69987 19.4043 6.4974 19.6387 7.34375C19.873 8.1901 19.9935 9.07552 20 10C20 10.918 19.8828 11.8034 19.6484 12.6562C19.4141 13.5091 19.0755 14.3034 18.6328 15.0391C18.1901 15.7747 17.6693 16.4486 17.0703 17.0605C16.4714 17.6725 15.7975 18.1966 15.0488 18.6328C14.3001 19.069 13.5026 19.4043 12.6562 19.6387C11.8099 19.873 10.9245 19.9935 10 20C9.08203 20 8.19661 19.8828 7.34375 19.6484C6.49089 19.4141 5.69661 19.0755 4.96094 18.6328C4.22526 18.1901 3.55143 17.6693 2.93945 17.0703C2.32747 16.4714 1.80339 15.7975 1.36719 15.0488C0.93099 14.3001 0.595703 13.5026 0.361328 12.6562C0.126953 11.8099 0.00651042 10.9245 0 10C0 9.08203 0.117188 8.19661 0.351562 7.34375C0.585938 6.49089 0.924479 5.69661 1.36719 4.96094C1.8099 4.22526 2.33073 3.55143 2.92969 2.93945C3.52865 2.32747 4.20247 1.80339 4.95117 1.36719C5.69987 0.93099 6.4974 0.595703 7.34375 0.361328C8.1901 0.126953 9.07552 0.00651042 10 0ZM15.8887 6.68945L14.5605 5.36133L8.125 11.7969L5.43945 9.11133L4.11133 10.4395L8.125 14.4531L15.8887 6.68945Z" fill="#4ECB71"/>
</svg>
