<svg width="20" height="20" viewBox="0 0 20 20" fill="none" xmlns="http://www.w3.org/2000/svg">
<path d="M10.975 15.7484L18.5609 16.4703C19.275 16.5391 19.4578 16.1406 19.4578 15.8031L19.45 15.3937L10.1203 14.0781C10.1203 14.5453 10.5 15.7484 10.975 15.7484Z" fill="#C62828"/>
<path d="M11.2516 15.3922L12.4453 15.4969L18.8375 16.1141C19.1812 16.1141 19.4578 15.8407 19.4578 15.5032L19.1188 5.15005C19.1188 4.81255 18.8406 4.53911 18.4984 4.53911L11.2516 3.85474C10.7766 3.85474 10.3906 4.23442 10.3906 4.70161V14.5454C10.3906 15.0125 10.775 15.3922 11.2516 15.3922Z" fill="#F44336"/>
<path d="M9.02499 15.7485L1.43905 16.4704C0.724988 16.5392 0.542175 16.1407 0.542175 15.8032L0.549988 15.3938L9.87968 14.0767C9.87968 14.5454 9.49999 15.7485 9.02499 15.7485Z" fill="#C62828"/>
<path d="M8.74843 15.3921L7.56405 15.4968L1.16249 16.1156C0.818738 16.1156 0.542175 15.8421 0.542175 15.5046L0.881238 5.15151C0.881238 4.81401 1.15936 4.54058 1.50155 4.54058L8.74843 3.8562C9.22343 3.8562 9.60936 4.23589 9.60936 4.70308V14.5468C9.60936 15.0125 9.22499 15.3921 8.74843 15.3921Z" fill="#F44336"/>
<path d="M12.3047 13.075H7.69843L7.5578 15.5015L8.9953 15.6359C8.9953 15.6359 9.30311 16.4046 9.99999 16.4046C10.6969 16.4046 11.0047 15.6359 11.0047 15.6359L12.4422 15.5015L12.3047 13.075Z" fill="#424242"/>
<path d="M12.4281 15.6923L11.0891 15.5767M7.5719 15.6923L8.91096 15.5767" stroke="#616161" stroke-width="0.390625" stroke-miterlimit="10"/>
<path d="M18.6953 5.12817L18.0703 4.2688L9.99998 13.4407L1.92966 4.2688L1.30466 5.12817L1.21716 15.3391C1.21716 15.3391 2.87654 15.5469 5.09373 15.3219C7.02498 15.1266 7.93435 14.6266 8.57966 14.7563C9.35466 14.9125 9.49529 15.3891 9.52029 15.4704C9.5906 15.6954 9.72966 15.8704 9.99998 15.8704C10.2703 15.8704 10.3906 15.7766 10.4734 15.4985C10.4984 15.4172 10.6453 14.9141 11.4203 14.7579C12.0656 14.6282 12.975 15.1282 14.9062 15.3235C17.1234 15.5485 18.7828 15.3407 18.7828 15.3407L18.6953 5.12817Z" fill="#94C6D6"/>
<path d="M17.8594 14.3546L17.8844 10.2312H18.7391L18.7828 15.339C18.7828 15.339 18.1031 15.075 17.8594 14.3546Z" fill="url(#paint0_linear_421_2)"/>
<path d="M17.8984 11.9517L17.8594 14.3563C17.8594 14.3563 15.9906 14.2595 13.014 13.7438C11.0672 13.4063 9.99998 14.4876 9.99998 14.4876L9.98279 11.9517H17.8984Z" fill="url(#paint1_linear_421_2)"/>
<path d="M2.10156 11.9517L2.14062 14.3563C2.14062 14.3563 4.00937 14.2595 6.98594 13.7438C8.93281 13.4063 10 14.4876 10 14.4876L9.98281 11.9517H2.10156Z" fill="url(#paint2_linear_421_2)"/>
<path d="M2.1406 14.3546L2.1156 10.2312H1.25935L1.21716 15.339C1.21716 15.339 1.89529 15.075 2.1406 14.3546Z" fill="url(#paint3_linear_421_2)"/>
<path d="M18.0703 4.26864C18.0703 4.26864 13.9234 3.48896 12.1031 3.38739C10.3906 3.29208 10.0391 4.16396 10.0047 4.26864H9.99845C9.96251 4.16396 9.61095 3.29364 7.89845 3.38739C6.07814 3.48896 1.93126 4.26864 1.93126 4.26864L1.74689 14.3311C1.74689 14.3311 6.68439 13.2968 7.8797 13.4311C9.07501 13.5655 10 14.4874 10 14.4874C10 14.4874 10.9266 13.5655 12.1219 13.4311C13.3172 13.2968 18.2547 14.3311 18.2547 14.3311L18.0703 4.26864Z" fill="#F5F5F5"/>
<path opacity="0.26" d="M8.37811 3.38916L7.53436 13.4204C7.66718 13.4173 7.78436 13.4204 7.87811 13.4313C9.07186 13.5642 9.99999 14.4876 9.99999 14.4876L9.97343 4.26885C9.97343 4.26885 9.7703 3.46885 8.37811 3.38916Z" fill="#94C6D6"/>
<path opacity="0.5" d="M3.95468 4.71563C3.5328 4.78907 3.18749 4.85157 2.99061 4.88594C2.99061 4.98282 2.99061 5.08907 2.98905 5.20313C3.16249 5.17188 3.51561 5.10782 3.95468 5.03125V4.71563ZM7.7578 4.2125V4.52344C8.59061 4.52188 9.05155 4.73125 9.20311 4.81563C9.20311 4.68594 9.20468 4.57032 9.20468 4.46875C8.94686 4.35313 8.47499 4.21094 7.7578 4.2125ZM7.07968 4.25157C6.40311 4.32032 5.46093 4.46407 4.6328 4.60157V4.91875C5.45468 4.78282 6.39843 4.6375 7.07968 4.56563V4.25157ZM5.41561 5.6C4.40624 5.75625 3.39374 5.9375 2.98749 6.01094V6.32813C3.34061 6.26407 4.37655 6.07657 5.41561 5.91563V5.6ZM7.2953 5.35625C6.96561 5.38282 6.5453 5.43594 6.09374 5.49844V5.81407C6.55468 5.74844 6.98592 5.69532 7.3203 5.66719C8.44217 5.575 9.03436 5.85 9.19999 5.94375V5.59532C8.89374 5.45938 8.27967 5.275 7.2953 5.35625ZM4.12186 6.93594C3.62811 7.02032 3.21561 7.09375 2.98749 7.13594V7.45313C3.19218 7.41563 3.61093 7.34063 4.12186 7.25313V6.93594ZM9.19999 6.725C8.8953 6.5875 8.27968 6.4 7.28593 6.48282C6.64999 6.53438 5.67655 6.67969 4.79999 6.82344V7.14063C5.68436 6.99532 6.67186 6.84844 7.31249 6.79532C8.45311 6.70157 9.04686 6.9875 9.19999 7.07657V6.725ZM9.20155 7.85469C8.89999 7.71719 8.28124 7.525 7.27968 7.60782C7.17811 7.61563 7.06874 7.62657 6.95311 7.63907V7.95313C7.07968 7.93907 7.19686 7.92813 7.30624 7.91875C8.46874 7.82344 9.06249 8.12188 9.20311 8.20625C9.20155 8.08907 9.20155 7.97188 9.20155 7.85469ZM6.27343 7.72344C5.05155 7.89063 3.52968 8.16094 2.98905 8.25938V8.57657C3.46561 8.48907 5.02343 8.20938 6.27343 8.0375V7.72344ZM4.41405 9.13594C3.79999 9.23907 3.26874 9.33438 2.98905 9.38438V9.70157C3.24218 9.65469 3.78124 9.55782 4.41405 9.45157V9.13594ZM9.20311 8.98594C8.90468 8.84844 8.2828 8.65157 7.27186 8.73438C6.70936 8.78125 5.88436 8.89844 5.09374 9.025V9.34063C5.89217 9.2125 6.73124 9.09219 7.29686 9.04532C8.48905 8.94688 9.08436 9.26563 9.20311 9.3375V8.98594ZM9.20624 11.2469C8.92186 11.1109 8.30624 10.9063 7.29061 10.9828V11.2969C8.58593 11.1922 9.17342 11.5797 9.20624 11.6031V11.2469ZM4.12186 11.4344C3.64061 11.5172 3.23124 11.5891 2.99218 11.6328V11.95C3.21249 11.9094 3.62499 11.8359 4.12186 11.75V11.4344ZM4.79999 11.3219V11.6391C5.40624 11.5406 6.0578 11.4406 6.61249 11.3703V11.0547C6.06093 11.1234 5.40936 11.2219 4.79999 11.3219ZM5.88592 12.2781C4.76717 12.4406 3.50936 12.6641 2.99374 12.7578V13.075C3.46093 12.9891 4.74217 12.7609 5.88592 12.5938V12.2781ZM9.2078 12.3781C8.92499 12.2406 8.2953 12.0266 7.2453 12.1125C7.04686 12.1281 6.81561 12.1547 6.56405 12.1859V12.5C6.82499 12.4672 7.06561 12.4406 7.2703 12.4234C8.6078 12.3125 9.1953 12.7281 9.20155 12.7313L9.20936 12.7219C9.20936 12.6141 9.20936 12.5 9.2078 12.3781ZM5.65311 10.0625C4.58749 10.2219 3.4578 10.4234 2.99061 10.5094V10.8266C3.40936 10.75 4.56093 10.5438 5.65311 10.3781V10.0625ZM9.20468 10.1156C8.91093 9.97813 8.28749 9.775 7.26249 9.85938C6.99999 9.88125 6.67967 9.91875 6.3328 9.96563V10.2813C6.69061 10.2328 7.0203 10.1938 7.28905 10.1719C8.5203 10.0703 9.11561 10.4125 9.20624 10.4703C9.20467 10.3547 9.20468 10.2359 9.20468 10.1156ZM13.8141 4.64219C15.1078 4.81407 16.7984 5.12032 17.2578 5.20313C17.2578 5.0875 17.2578 4.98282 17.2562 4.88594C16.7187 4.7875 15.0734 4.49375 13.8125 4.32657V4.64219H13.8141ZM13.1344 4.24844C13.0672 4.24219 13.0031 4.23594 12.9422 4.23125C11.9625 4.15 11.35 4.33282 11.0422 4.46875C11.0422 4.57032 11.0437 4.6875 11.0437 4.81563C11.2187 4.71875 11.8109 4.45157 12.9172 4.54219C12.9859 4.54844 13.0594 4.55469 13.1344 4.5625V4.24844ZM15.9937 6.10625C16.4161 6.17815 16.8379 6.25263 17.2594 6.32969V6.0125C17.014 5.96719 16.5484 5.88438 15.9937 5.79063V6.10625ZM15.3156 5.67657C14.4703 5.54063 13.5578 5.40625 12.9515 5.35625C11.9672 5.275 11.3531 5.45938 11.0453 5.59532V5.94375C11.2109 5.85 11.8031 5.575 12.925 5.66719C13.5359 5.71719 14.4625 5.85469 15.3141 5.99219V5.67657H15.3156ZM15.1844 6.77969V7.09532C16.0922 7.24063 16.9375 7.39375 17.2594 7.45313V7.13594C16.8953 7.07032 16.0656 6.92188 15.1844 6.77969ZM13.8125 7.70313C13.4984 7.6625 13.2078 7.62813 12.9672 7.60938C11.9656 7.52657 11.3469 7.71875 11.0453 7.85625V8.20782C11.1859 8.125 11.7812 7.825 12.9422 7.92032C13.1891 7.94063 13.4891 7.975 13.8125 8.01875V7.70313ZM14.4922 7.79844V8.11407C15.625 8.28282 16.8453 8.50313 17.2578 8.57813V8.26094C16.7922 8.175 15.5969 7.9625 14.4922 7.79844ZM14.6297 8.94375C14.0125 8.85 13.4141 8.77032 12.9766 8.73438C11.9641 8.65157 11.3422 8.84844 11.0453 8.98594V9.33907C11.1641 9.26563 11.7594 8.94844 12.9515 9.04688C13.3937 9.08282 14.0047 9.16563 14.6312 9.26094V8.94375H14.6297ZM15.3078 9.05V9.36719C16.1578 9.50469 16.9359 9.64532 17.2562 9.70313V9.38594C16.9 9.32032 16.1344 9.18282 15.3078 9.05ZM16.4125 10.3594V10.6766C16.7812 10.7406 17.0828 10.7953 17.2547 10.8266V10.5094C17.0672 10.475 16.7703 10.4219 16.4125 10.3594ZM13.9516 11.0953C13.5937 11.0469 13.2625 11.0078 12.9937 10.9859C11.9562 10.9 11.3297 11.1094 11.0422 11.2469V11.6031C11.075 11.5797 11.6656 11.1891 12.9703 11.2969C13.2453 11.3188 13.5859 11.3594 13.9547 11.4094V11.0953H13.9516ZM14.6297 11.1922V11.5078C15.7047 11.6703 16.8328 11.8734 17.2547 11.95V11.6328C16.7859 11.5484 15.6797 11.3516 14.6297 11.1922ZM15.1844 12.4031C14.3922 12.2766 13.564 12.1578 13.0015 12.1109C11.95 12.025 11.3219 12.2406 11.0391 12.3766V12.7203L11.0469 12.7297C11.0515 12.7266 11.639 12.3109 12.9781 12.4219C13.5453 12.4688 14.3875 12.5906 15.1875 12.7188V12.4031H15.1844ZM15.864 12.5156V12.8328C16.4719 12.9344 16.9906 13.0281 17.2531 13.0766V12.7594C16.9672 12.7063 16.4547 12.6141 15.864 12.5156ZM12.9578 9.85782C11.9484 9.77813 11.3328 9.97969 11.0422 10.1156V10.4703C11.1328 10.4125 11.7265 10.0703 12.9578 10.1719V9.85782ZM13.6375 9.92969V10.2438C14.2812 10.325 15.0547 10.4469 15.7344 10.5594V10.2422C15.05 10.1297 14.2765 10.0094 13.6375 9.92969ZM12.4562 6.46407C11.7562 6.46875 11.2953 6.6125 11.0469 6.725V7.075C11.1781 7 11.6266 6.78282 12.4562 6.775V6.46407ZM13.1344 6.49844V6.8125C13.5234 6.85157 14.0062 6.91719 14.5047 6.99063V6.675C14.0047 6.6 13.5234 6.53594 13.1344 6.49844Z" fill="#757575"/>
<path d="M11.1188 15.3828C10.9438 15.3672 10.7828 15.475 10.7266 15.6422C10.6422 15.8969 10.4453 16.2297 10 16.2297C9.55001 16.2297 9.35157 15.8953 9.26564 15.6407C9.23888 15.5608 9.18621 15.4923 9.116 15.4458C9.04578 15.3994 8.96206 15.3778 8.87814 15.3844L8.8172 15.3891L8.81876 15.4391C8.81876 15.752 8.94305 16.052 9.16428 16.2733C9.38552 16.4945 9.68558 16.6188 9.99845 16.6188C10.3113 16.6188 10.6114 16.4945 10.8326 16.2733C11.0538 16.052 11.1781 15.752 11.1781 15.4391C11.1781 15.4235 11.1766 15.3875 11.1766 15.3875L11.1188 15.3828Z" fill="#616161"/>
<defs>
<linearGradient id="paint0_linear_421_2" x1="18.3192" y1="13.7814" x2="18.3578" y2="11.0778" gradientUnits="userSpaceOnUse">
<stop offset="0.267" stop-color="#82AEC0"/>
<stop offset="1" stop-color="#82AEC0" stop-opacity="0"/>
</linearGradient>
<linearGradient id="paint1_linear_421_2" x1="10.9245" y1="13.219" x2="17.6137" y2="13.219" gradientUnits="userSpaceOnUse">
<stop stop-color="#2F7889"/>
<stop offset="1" stop-color="#82AEC0"/>
</linearGradient>
<linearGradient id="paint2_linear_421_2" x1="9.05922" y1="13.219" x2="2.38484" y2="13.219" gradientUnits="userSpaceOnUse">
<stop stop-color="#2F7889"/>
<stop offset="1" stop-color="#82AEC0"/>
</linearGradient>
<linearGradient id="paint3_linear_421_2" x1="1.68013" y1="13.7814" x2="1.64138" y2="11.0778" gradientUnits="userSpaceOnUse">
<stop offset="0.267" stop-color="#82AEC0"/>
<stop offset="1" stop-color="#82AEC0" stop-opacity="0"/>
</linearGradient>
</defs>
</svg>
