<svg width="17" height="17" viewBox="0 0 17 17" fill="none" xmlns="http://www.w3.org/2000/svg">
<path d="M16 16L11 11M1 6.83333C1 7.59938 1.15088 8.35792 1.44404 9.06565C1.73719 9.77339 2.16687 10.4164 2.70854 10.9581C3.25022 11.4998 3.89328 11.9295 4.60101 12.2226C5.30875 12.5158 6.06729 12.6667 6.83333 12.6667C7.59938 12.6667 8.35792 12.5158 9.06565 12.2226C9.77339 11.9295 10.4164 11.4998 10.9581 10.9581C11.4998 10.4164 11.9295 9.77339 12.2226 9.06565C12.5158 8.35792 12.6667 7.59938 12.6667 6.83333C12.6667 6.06729 12.5158 5.30875 12.2226 4.60101C11.9295 3.89328 11.4998 3.25022 10.9581 2.70854C10.4164 2.16687 9.77339 1.73719 9.06565 1.44404C8.35792 1.15088 7.59938 1 6.83333 1C6.06729 1 5.30875 1.15088 4.60101 1.44404C3.89328 1.73719 3.25022 2.16687 2.70854 2.70854C2.16687 3.25022 1.73719 3.89328 1.44404 4.60101C1.15088 5.30875 1 6.06729 1 6.83333Z" stroke="black" stroke-width="1.66667" stroke-linecap="round" stroke-linejoin="round"/>
</svg>
